<svg width="0" height="0" class="hidden">
  <symbol fill="#acacac" xmlns="http://www.w3.org/2000/svg" preserveAspectRatio="xMidYMid" viewBox="0 0 14.906 32" id="facebook">
    <g id="SVGRepo_bgCarrier" stroke-width="0"></g>
    <g id="SVGRepo_tracerCarrier" stroke-linecap="round" stroke-linejoin="round"></g>
    <g id="SVGRepo_iconCarrier">
      <path d="M14.874,11.167 L14.262,14.207 C14.062,15.208 13.100,15.992 12.072,15.992 L10.000,15.992 L10.000,30.000 C10.000,31.104 9.159,32.000 8.049,32.000 L5.030,32.000 C3.920,32.000 3.017,31.102 3.017,29.999 L3.017,15.992 L2.011,15.992 C0.901,15.992 -0.002,15.095 -0.002,13.991 L-0.002,10.990 C-0.002,9.887 0.901,8.989 2.011,8.989 L3.017,8.989 L3.017,6.003 C3.017,2.716 5.693,0.041 8.994,0.013 C9.015,0.012 9.033,0.001 9.055,0.001 L13.081,0.001 C13.636,0.001 14.000,0.448 14.000,1.000 L14.000,6.000 C14.000,6.553 13.636,7.004 13.081,7.004 L10.061,7.004 L10.060,8.989 L13.079,8.989 C13.645,8.989 14.167,9.228 14.509,9.644 C14.852,10.059 14.985,10.615 14.874,11.167 ZM9.092,10.990 C9.078,10.991 9.067,10.998 9.053,10.998 L9.053,10.998 C8.497,10.997 8.046,10.549 8.047,9.997 L8.047,9.990 C8.047,9.990 8.047,9.990 8.047,9.990 C8.047,9.990 8.047,9.990 8.047,9.990 L8.049,6.003 C8.049,5.450 8.499,5.003 9.055,5.003 L12.074,5.003 L12.074,2.002 L9.094,2.002 C9.077,2.002 9.063,2.011 9.045,2.011 C6.831,2.011 5.030,3.802 5.030,6.003 L5.030,10.005 C5.030,10.558 4.579,11.006 4.023,11.006 C3.996,11.006 3.973,10.992 3.946,10.990 L2.011,10.990 L2.011,13.991 L4.023,13.991 C4.579,13.991 5.030,14.439 5.030,14.992 C5.030,15.044 5.008,15.088 5.000,15.138 L5.000,30.000 L8.049,29.999 L8.049,15.002 C8.049,14.998 8.047,14.995 8.047,14.992 C8.047,14.439 8.497,13.991 9.053,13.991 L12.072,13.991 C12.145,13.991 12.275,13.886 12.288,13.816 L12.857,10.990 L9.092,10.990 Z"></path>
    </g>
  </symbol>
  <symbol fill="none" xmlns="http://www.w3.org/2000/svg" viewBox="0 0 24 24" id="instagram">
    <g id="SVGRepo_bgCarrier" stroke-width="0"></g>
    <g id="SVGRepo_tracerCarrier" stroke-linecap="round" stroke-linejoin="round"></g>
    <g id="SVGRepo_iconCarrier">
      <path fill-rule="evenodd" clip-rule="evenodd" d="M12 18C15.3137 18 18 15.3137 18 12C18 8.68629 15.3137 6 12 6C8.68629 6 6 8.68629 6 12C6 15.3137 8.68629 18 12 18ZM12 16C14.2091 16 16 14.2091 16 12C16 9.79086 14.2091 8 12 8C9.79086 8 8 9.79086 8 12C8 14.2091 9.79086 16 12 16Z" fill="#acacac"></path>
      <path d="M18 5C17.4477 5 17 5.44772 17 6C17 6.55228 17.4477 7 18 7C18.5523 7 19 6.55228 19 6C19 5.44772 18.5523 5 18 5Z" fill="#acacac"></path>
      <path fill-rule="evenodd" clip-rule="evenodd" d="M1.65396 4.27606C1 5.55953 1 7.23969 1 10.6V13.4C1 16.7603 1 18.4405 1.65396 19.7239C2.2292 20.8529 3.14708 21.7708 4.27606 22.346C5.55953 23 7.23969 23 10.6 23H13.4C16.7603 23 18.4405 23 19.7239 22.346C20.8529 21.7708 21.7708 20.8529 22.346 19.7239C23 18.4405 23 16.7603 23 13.4V10.6C23 7.23969 23 5.55953 22.346 4.27606C21.7708 3.14708 20.8529 2.2292 19.7239 1.65396C18.4405 1 16.7603 1 13.4 1H10.6C7.23969 1 5.55953 1 4.27606 1.65396C3.14708 2.2292 2.2292 3.14708 1.65396 4.27606ZM13.4 3H10.6C8.88684 3 7.72225 3.00156 6.82208 3.0751C5.94524 3.14674 5.49684 3.27659 5.18404 3.43597C4.43139 3.81947 3.81947 4.43139 3.43597 5.18404C3.27659 5.49684 3.14674 5.94524 3.0751 6.82208C3.00156 7.72225 3 8.88684 3 10.6V13.4C3 15.1132 3.00156 16.2777 3.0751 17.1779C3.14674 18.0548 3.27659 18.5032 3.43597 18.816C3.81947 19.5686 4.43139 20.1805 5.18404 20.564C5.49684 20.7234 5.94524 20.8533 6.82208 20.9249C7.72225 20.9984 8.88684 21 10.6 21H13.4C15.1132 21 16.2777 20.9984 17.1779 20.9249C18.0548 20.8533 18.5032 20.7234 18.816 20.564C19.5686 20.1805 20.1805 19.5686 20.564 18.816C20.7234 18.5032 20.8533 18.0548 20.9249 17.1779C20.9984 16.2777 21 15.1132 21 13.4V10.6C21 8.88684 20.9984 7.72225 20.9249 6.82208C20.8533 5.94524 20.7234 5.49684 20.564 5.18404C20.1805 4.43139 19.5686 3.81947 18.816 3.43597C18.5032 3.27659 18.0548 3.14674 17.1779 3.0751C16.2777 3.00156 15.1132 3 13.4 3Z" fill="#acacac"></path>
    </g>
  </symbol>
  <symbol version="1.1" xmlns="http://www.w3.org/2000/svg" xmlns:xlink="http://www.w3.org/1999/xlink" fill="#000000" viewBox="0 -2 20 20" id="twitter">
    <g id="SVGRepo_bgCarrier" stroke-width="0"></g>
    <g id="SVGRepo_tracerCarrier" stroke-linecap="round" stroke-linejoin="round"></g>
    <g id="SVGRepo_iconCarrier">
      <title>twitter [#154]</title>
      <desc>Created with Sketch.</desc>
      <defs></defs>
      <g id="Page-1" stroke="none" stroke-width="1" fill="none" fill-rule="evenodd">
        <g id="Dribbble-Light-Preview" transform="translate(-60.000000, -7521.000000)" fill="#acacac">
          <g id="icons" transform="translate(56.000000, 160.000000)">
            <path d="M10.29,7377 C17.837,7377 21.965,7370.84365 21.965,7365.50546 C21.965,7365.33021 21.965,7365.15595 21.953,7364.98267 C22.756,7364.41163 23.449,7363.70276 24,7362.8915 C23.252,7363.21837 22.457,7363.433 21.644,7363.52751 C22.5,7363.02244 23.141,7362.2289 23.448,7361.2926 C22.642,7361.76321 21.761,7362.095 20.842,7362.27321 C19.288,7360.64674 16.689,7360.56798 15.036,7362.09796 C13.971,7363.08447 13.518,7364.55538 13.849,7365.95835 C10.55,7365.79492 7.476,7364.261 5.392,7361.73762 C4.303,7363.58363 4.86,7365.94457 6.663,7367.12996 C6.01,7367.11125 5.371,7366.93797 4.8,7366.62489 L4.8,7366.67608 C4.801,7368.5989 6.178,7370.2549 8.092,7370.63591 C7.488,7370.79836 6.854,7370.82199 6.24,7370.70483 C6.777,7372.35099 8.318,7373.47829 10.073,7373.51078 C8.62,7374.63513 6.825,7375.24554 4.977,7375.24358 C4.651,7375.24259 4.325,7375.22388 4,7375.18549 C5.877,7376.37088 8.06,7377 10.29,7376.99705" id="twitter-[#154]"></path>
          </g>
        </g>
      </g>
    </g>
  </symbol>
  <symbol version="1.1" xmlns="http://www.w3.org/2000/svg" xmlns:xlink="http://www.w3.org/1999/xlink" fill="#000000" viewBox="0 0 20 20" id="linkedin">
    <g id="SVGRepo_bgCarrier" stroke-width="0"></g>
    <g id="SVGRepo_tracerCarrier" stroke-linecap="round" stroke-linejoin="round"></g>
    <g id="SVGRepo_iconCarrier">
      <title>linkedin [#acacac]</title>
      <desc>Created with Sketch.</desc>
      <defs></defs>
      <g id="Page-1" stroke="none" stroke-width="1" fill="none" fill-rule="evenodd">
        <g id="Dribbble-Light-Preview" transform="translate(-180.000000, -7479.000000)" fill="#acacac">
          <g id="icons" transform="translate(56.000000, 160.000000)">
            <path d="M144,7339 L140,7339 L140,7332.001 C140,7330.081 139.153,7329.01 137.634,7329.01 C135.981,7329.01 135,7330.126 135,7332.001 L135,7339 L131,7339 L131,7326 L135,7326 L135,7327.462 C135,7327.462 136.255,7325.26 139.083,7325.26 C141.912,7325.26 144,7326.986 144,7330.558 L144,7339 L144,7339 Z M126.442,7323.921 C125.093,7323.921 124,7322.819 124,7321.46 C124,7320.102 125.093,7319 126.442,7319 C127.79,7319 128.883,7320.102 128.883,7321.46 C128.884,7322.819 127.79,7323.921 126.442,7323.921 L126.442,7323.921 Z M124,7339 L129,7339 L129,7326 L124,7326 L124,7339 Z" id="linkedin-[#acacac]"></path>
          </g>
        </g>
      </g>
    </g>
  </symbol>
  <symbol fill="none" xmlns="http://www.w3.org/2000/svg" viewBox="0 0 24 24" id="telegram">
    <g id="SVGRepo_bgCarrier" stroke-width="0"></g>
    <g id="SVGRepo_tracerCarrier" stroke-linecap="round" stroke-linejoin="round"></g>
    <g id="SVGRepo_iconCarrier">
      <path fill-rule="evenodd" clip-rule="evenodd" d="M23.1117 4.49449C23.4296 2.94472 21.9074 1.65683 20.4317 2.227L2.3425 9.21601C0.694517 9.85273 0.621087 12.1572 2.22518 12.8975L6.1645 14.7157L8.03849 21.2746C8.13583 21.6153 8.40618 21.8791 8.74917 21.968C9.09216 22.0568 9.45658 21.9576 9.70712 21.707L12.5938 18.8203L16.6375 21.8531C17.8113 22.7334 19.5019 22.0922 19.7967 20.6549L23.1117 4.49449ZM3.0633 11.0816L21.1525 4.0926L17.8375 20.2531L13.1 16.6999C12.7019 16.4013 12.1448 16.4409 11.7929 16.7928L10.5565 18.0292L10.928 15.9861L18.2071 8.70703C18.5614 8.35278 18.5988 7.79106 18.2947 7.39293C17.9906 6.99479 17.4389 6.88312 17.0039 7.13168L6.95124 12.876L3.0633 11.0816ZM8.17695 14.4791L8.78333 16.6015L9.01614 15.321C9.05253 15.1209 9.14908 14.9366 9.29291 14.7928L11.5128 12.573L8.17695 14.4791Z" fill="#acacac"></path>
    </g>
  </symbol>
</svg>

<!-- USE -->
<svg class="icon">
  <use xlink:href="#facebook"></use>
</svg><svg class="icon">
  <use xlink:href="#instagram"></use>
</svg><svg class="icon">
  <use xlink:href="#twitter"></use>
</svg><svg class="icon">
  <use xlink:href="#linkedin"></use>
</svg><svg class="icon">
  <use xlink:href="#telegram"></use>
</svg>